#!OML:ASF F:\VICON\USERDATA\INSTALL\rory3\rory3.ASF
:FULLY-SPECIFIED
:DEGREES
62
root 0.46801263418264094 17.956851663352772 28.29135412041437 0.7803890926945494 4.175526660315974 -2.382693345351598
lfemur -21.09343437639402 0.13288881454874812 -22.459374499541877
ltibia 41.67942524728971
lfoot 2.4988617348626816 -11.140737228017603
ltoes -3.31093843324853
rfemur -9.18272610077036 2.962974784171188 27.178568598305326
rtibia 68.7566458493032
rfoot 0.15524763257414664 -6.6249216684295895
rtoes -0.7472451643785021
lowerback 12.542923358957744 1.5556816549055763 2.2718820726814357
upperback -0.7305207851880817 2.8019574072885467 0.9767187204811367
thorax -8.070325658320876 1.5132751748661026 -1.0077299415441539
lowerneck -19.602442254352354 -4.484065584133187 -1.8036509719806473
upperneck 9.753968242643387 -5.653229042962398 3.693315845267093
head 6.294135051849211 -2.6173766225802164 0.8668050724017233
lclavicle 4.287488207731266e-15 5.75886165290891e-17
lhumerus -53.79578554593851 -11.100799065476801 96.68107002901964
lradius 107.26543943795102
lwrist 28.420388740461853
lhand -29.91237918290969 3.0799626944321843
lfingers 7.125019999999998
lthumb -2.842606896145011 33.02489214093526
rclavicle 4.28752700038245e-15 5.761646213958064e-17
rhumerus -37.23337843049837 17.53666354129186 -98.99391126805457
rradius 104.0612078612221
rwrist -9.839293907888576
rhand -20.389266033139684 36.471090821366545
rfingers 7.125019999999998
rthumb 6.053057251140555 6.5574677564370125
63
root 0.427867187239947 17.78587921515902 28.790640680858793 0.5128704386504976 4.786692303433692 -1.679789034714175
lfemur -18.97378860971689 0.26122986319852715 -22.847376762971447
ltibia 42.292661294547855
lfoot 1.6115335801756265 -10.275032007231001
ltoes -3.2704131103476213
rfemur -11.810734826763692 2.0850098932959877 25.70562842948724
rtibia 73.1636499577706
rfoot -0.36799729551788396 -6.9927939074693635
rtoes -0.8190761429002689
lowerback 12.910974727875274 1.4216113060851003 1.6909291075278867
upperback -0.589300425470699 2.4558700191636356 0.8456135744228892
thorax -8.181463098500256 1.3273488129229651 -0.7778797096278933
lowerneck -19.63098438482458 -4.367099712179176 -1.787851974144571
upperneck 9.893432208158135 -5.53931365116153 3.6411272636261915
head 6.319542811697997 -2.576290845128546 0.8861526969849081
lclavicle 4.287488207731266e-15 5.75886165290891e-17
lhumerus -51.26156577720224 -11.703392946946114 96.76075813481539
lradius 107.71434655096553
lwrist 28.48654293079621
lhand -29.797910560379282 2.9649242442245956
lfingers 7.125019999999998
lthumb -2.8183303617736786 32.87498561709393
rclavicle 4.28752700038245e-15 5.761646213958064e-17
rhumerus -37.894473731796644 17.281362691385265 -99.36591678180567
rradius 104.20614395048928
rwrist -9.818967420140103
rhand -20.352313564126266 36.511782240156904
rfingers 7.125019999999998
rthumb 5.940359145870891 6.411016575314334
64
root 0.4035902301867569 17.63364543423608 29.701547382263996 0.4631232011567512 5.105660721417014 -0.9050512315863499
lfemur -19.618250831160438 -0.32384658823264534 -24.22958616519241
ltibia 41.944266936670324
lfoot 1.5067633882863878 -9.433481282535514
ltoes -3.37128515306867
rfemur -12.690556991914203 1.6755591026877847 24.852371276480234
rtibia 76.7552630064813
rfoot -0.8077125738672801 -7.1118743714199635
rtoes -0.3303683639461461
lowerback 13.215693051977645 1.2597135832384923 1.0177749432061385
upperback -0.45996591788993646 2.193833431918975 0.7050356644735827
thorax -8.20022596135583 1.260842234409306 -0.2769571218796973
lowerneck -19.831376712114537 -4.305767879784785 -1.8058483902775575
upperneck 10.029245297804334 -5.385198755408296 3.593888050585638
head 6.330535819716212 -2.530610158903749 0.8982638866768388
lclavicle 4.287488207731266e-15 5.75886165290891e-17
lhumerus -48.85510582510744 -12.41548197270111 96.73536120058908
lradius 108.03632017973105
lwrist 28.420484025214567
lhand -29.826148325582395 2.789040696630843
lfingers 7.125019999999998
lthumb -2.861901480225109 32.66962999259868
rclavicle 4.28752700038245e-15 5.761646213958064e-17
rhumerus -38.806647701628705 16.913697236732627 -99.72387947738152
rradius 104.37991676215672
rwrist -9.58121851642522
rhand -20.37943754750695 36.52302371340056
rfingers 7.125019999999998
rthumb 6.033579446348963 6.484216168904009
65
root 0.373383003483322 17.480173182510864 29.586636308245225 0.492322662181333 4.871950377867634 -0.25708474121765224
lfemur -16.119457180374148 -0.03375396538524489 -24.322096986050322
ltibia 40.59534272641021
lfoot 0.9131062443942568 -9.534273788844331
ltoes -4.177920897276001
rfemur -15.151046297417475 1.35828968256803 23.90361071491196
rtibia 79.0601583033724
rfoot -0.06211105634994929 -6.734469135580203
rtoes 0.3153476431240617
lowerback 13.489353411699119 1.1163356729222593 0.39162822391464835
upperback -0.3944885003761388 1.8298897958258462 0.5162229119766353
thorax -8.323248107702044 1.0884470510667525 -0.020441959567782275
lowerneck -19.82208226251476 -4.119067312307743 -1.7580769619507355
upperneck 10.246456091313915 -5.162256987217678 3.5586791220468164
head 6.333727013430468 -2.490940010726747 0.9001024705922792
lclavicle 4.287488207731266e-15 5.75886165290891e-17
lhumerus -46.6466316164401 -12.92099251630464 96.69804445374872
lradius 108.215589717088
lwrist 28.41804339348152
lhand -29.772453101860364 2.6774438051090614
lfingers 7.125019999999998
lthumb -2.9357367533910876 32.420690458621905
rclavicle 4.28752700038245e-15 5.761646213958064e-17
rhumerus -39.80850219645659 16.505666286707882 -100.0537492376807
rradius 104.56723444461058
rwrist -9.331704404336387
rhand -20.38966348690418 36.54026299406815
rfingers 7.125019999999998
rthumb 5.9613934612592985 6.4399653337819585
